<!-- how is this made:
First choose a logo then copy the logo from !the list! not the editor thing
https://editor.freelogodesign.org/?lang=EN&companyname=Muino&category=34

(maybe optional) change the collors
https://editor.method.ac/ 

minify it (works great) so the code is cleaned up
https://www.svgminify.com/

(maybe optional) did also some change with the background 
(use this to redraw the height etc )
<title>background</title>
<rect transform="translate(1 1)" x="-1" y="-1" width="0" height="203" fill="none"/>


some last editing 
https://editor.method.ac/ 
-->



<svg width="250" height="103" xmlns="http://www.w3.org/2000/svg" class="thumb">

 <g>
  <title>background</title>
  <rect id="svg_16" fill="none" height="203" width="0" y="0" x="0"/>
 </g>
 <g>
  <title>Layer 1</title>
  <g id="svg_1" stroke="null" transform="matrix(0.93547,0,0,0.93513,141.71,22.128) ">
   <svg id="svg_17" height="203" width="0" y="25.233" x="13.621">
    <g id="svg_18" stroke="null"/>
   </svg>
  </g>
  <g id="svg_19" stroke="null">
   <g id="svg_2" transform="matrix(0.40537,0,0,0.39806,131.45,16.976) ">
    <svg id="svg_20" height="203" width="380.62" y="-49.524993" x="-123.071293">
     <g id="svg_21" stroke="null">
      <path id="svg_22" stroke-width="0" stroke="null" fill="#cf1717" d="m151.38,91.225l-30.776,-54.29l0,54.29l-6.3784,0l0,-59.225l10.633,0l29.748,51.818l29.748,-51.818l10.17,0l0,59.225l-6.3784,0l0,-53.476l-30.313,53.476l-6.4533,0l0.0001,0zm53.818,-44.419l6.3784,0l0,24.677q0,4.1221 0.53777,6.957q0.53097,2.8349 2.1239,4.5722q1.5929,1.7373 4.52,2.5032q2.9271,0.77388 7.7126,0.77388q5.1872,0 8.4887,-0.88443q3.3083,-0.89233 5.2076,-2.5111q1.8924,-1.6188 2.6072,-3.8931q0.71476,-2.2742 0.71476,-5.0539l0,-27.141l6.3784,0l0,44.419l-6.3784,0l0,-7.4071q-0.46289,1.2003 -1.5657,2.6454q-1.096,1.4451 -3.2879,2.677q-2.1919,1.2398 -5.6705,2.0847q-3.4717,0.84494 -8.6248,0.84494q-4.2818,0 -7.3587,-0.59225q-3.0769,-0.60015 -5.2212,-1.7768q-2.1443,-1.1766 -3.4377,-2.9139q-1.3002,-1.7294 -1.9945,-4.0273q-0.70115,-2.29 -0.9326,-5.1092q-0.23145,-2.8112 -0.23145,-6.1673l0.03404,-24.677l-0.00001,0l0.00009,0.00006zm55.312,44.419l0,-44.419l6.3784,0l0,44.419l-6.3784,0zm6.3784,-59.225l0,7.3992l-6.3784,0l0,-7.3992l6.3784,0zm55.313,59.225l-6.3852,0l0,-24.677q0,-4.1221 -0.53096,-6.957q-0.53097,-2.8349 -2.1307,-4.5722q-1.5929,-1.7373 -4.52,-2.5032q-2.9203,-0.77387 -7.7058,-0.77387q-5.1871,0 -8.4955,0.88442q-3.3083,0.89233 -5.2008,2.5112q-1.8992,1.6188 -2.614,3.8931q-0.70795,2.2742 -0.70795,5.046l0,27.149l-6.3852,0l0,-44.419l6.3852,0l0,7.3992q0.69434,-1.8873 1.9877,-3.2534q1.3002,-1.3661 2.9271,-2.3374q1.6269,-0.96339 3.5262,-1.5556q1.8924,-0.60015 3.7848,-0.92391q1.8992,-0.33166 3.6759,-0.45011q1.7767,-0.11056 3.2403,-0.11056q4.2546,0 7.3314,0.61594q3.0701,0.61595 5.2144,1.8083q2.1443,1.2003 3.4445,2.9692q1.2934,1.7768 2.0082,4.1063q0.71477,2.3374 0.94621,5.2118q0.23145,2.8665 0.23145,6.2621l-0.02723,24.677l-0.00002,-0.00031zm7.477,-22.521q0,-6.8227 1.2594,-11.292q1.2662,-4.4774 4.0571,-7.0991q2.791,-2.6217 7.2429,-3.6798q4.4588,-1.0582 10.837,-1.0582q6.3852,0 10.837,1.0582q4.452,1.0582 7.2498,3.6798q2.791,2.6217 4.0503,7.0991q1.2662,4.4695 1.2662,11.292q0,6.8306 -1.2662,11.34q-1.2594,4.509 -4.0503,7.1702q-2.7978,2.6612 -7.2498,3.7588q-4.452,1.0976 -10.837,1.0976q-6.3784,0 -10.837,-1.0976q-4.452,-1.0976 -7.2429,-3.7588q-2.791,-2.6612 -4.0571,-7.1702q-1.2594,-4.509 -1.2594,-11.34zm6.3784,0q0,3.7035 0.23145,6.4437q0.23826,2.7401 0.88495,4.7064q0.64669,1.9663 1.8107,3.1982q1.164,1.2319 3.0565,1.9663q1.8924,0.73439 4.6017,1.0029q2.7093,0.26849 6.4329,0.26849q3.1926,0 5.7045,-0.17373q2.5051,-0.17373 4.3839,-0.78967t3.2062,-1.7531q1.3342,-1.1371 2.1443,-3.1034q0.81688,-1.9663 1.1981,-4.8407q0.38121,-2.8744 0.38121,-6.9254q0,-3.9641 -0.38121,-6.7596q-0.3812,-2.8033 -1.1981,-4.6906q-0.81006,-1.8873 -2.1443,-2.985q-1.3274,-1.0976 -3.2062,-1.6583t-4.3839,-0.7107q-2.5119,-0.15793 -5.7045,-0.15793q-3.1858,0 -5.6977,0.15793q-2.5119,0.15004 -4.3907,0.7107q-1.8788,0.56066 -3.2062,1.6583t-2.1443,2.985q-0.81006,1.8873 -1.1981,4.6906q-0.38121,2.7954 -0.38121,6.7596l0.00001,0.00001z"/>
     </g>
    </svg>
   </g>
   <g id="svg_3" transform="matrix(1.8156999999999999,-0.03168399999999999,0.03170799999999999,1.8142999999999998,18.504,-15.041099999999997) ">
    <svg id="svg_23" viewBox="16.799239339794724,-1.3010000000000002,16.391521320410554,16.381999999999998" height="16.382" width="16.392" y="11.754114" x="8.988815">
     <circle id="svg_24" stroke="null" fill="none" r="3.191" cy="6.89" cx="24.995"/>
    </svg>
   </g>
   <g id="svg_4" transform="matrix(1.8156999999999999,-0.03168399999999999,0.03170799999999999,1.8142999999999998,46.408,30.724) ">
    <svg id="svg_25" viewBox="31.726697807032664,24.192,16.383500077982838,16.36548071116829" height="16.365" width="16.384" y="11.754114" x="8.988815">
     <path id="svg_26" stroke="null" fill="none" d="m41.483,29.601c-0.474,-0.265 -1.015,-0.409 -1.557,-0.409c-1.156,0 -2.222,0.628 -2.788,1.633c-0.419,0.741 -0.522,1.602 -0.29,2.424c0.231,0.82 0.764,1.501 1.509,1.922c1.488,0.839 3.515,0.258 4.344,-1.221c0.863,-1.54 0.316,-3.489 -1.218,-4.349z"/>
    </svg>
   </g>
   <g id="svg_5" transform="matrix(1.8156999999999999,-0.03168399999999999,0.03170799999999999,1.8142999999999998,45.891999999999996,0.3400000000000034) ">
    <svg id="svg_27" viewBox="31.73269780703267,7.436999999999999,16.387733030101266,16.381999999999998" height="16.382" width="16.388" y="11.754114" x="8.988815">
     <path id="svg_28" stroke="null" fill="none" d="m39.921,12.437c-0.541,0 -1.08,0.14 -1.557,0.409c-0.744,0.414 -1.279,1.097 -1.51,1.915c-0.232,0.82 -0.129,1.685 0.29,2.426c0.565,1.005 1.632,1.632 2.787,1.632c0.541,0 1.081,-0.144 1.559,-0.411c0.745,-0.416 1.277,-1.097 1.509,-1.919c0.232,-0.821 0.129,-1.681 -0.287,-2.425c-0.569,-1.001 -1.635,-1.627 -2.791,-1.627z"/>
    </svg>
   </g>
   <g id="svg_6" transform="matrix(1.8156999999999999,-0.03168399999999999,0.03170799999999999,1.8142999999999998,19.588999999999995,47.06) ">
    <svg id="svg_29" viewBox="16.80024086355298,32.928000000000004,16.389518272894044,16.380000000000003" height="16.38" width="16.39" y="11.754114" x="8.988815">
     <circle id="svg_30" stroke="null" fill="none" r="3.19" cy="41.118" cx="24.995"/>
    </svg>
   </g>
   <g id="svg_7" transform="matrix(1.8156999999999999,-0.03168399999999999,0.03170799999999999,1.8142999999999998,-8.312,1.2759999999999998) ">
    <svg id="svg_31" viewBox="1.8839566756362434,7.431999999999999,16.37924407510215,16.382" height="16.382" width="16.379" y="11.754114" x="8.988815">
     <path id="svg_32" stroke="null" fill="none" d="m8.514,18.408c0.474,0.266 1.013,0.406 1.556,0.406c1.153,0 2.22,-0.624 2.785,-1.628c0.862,-1.534 0.314,-3.485 -1.222,-4.344c-0.477,-0.269 -1.015,-0.41 -1.556,-0.41c-1.152,0 -2.223,0.625 -2.788,1.629c-0.857,1.531 -0.31,3.481 1.225,4.347z"/>
    </svg>
   </g>
   <g id="svg_8" transform="matrix(1.8156999999999999,-0.03168399999999999,0.03170799999999999,1.8142999999999998,-7.779999999999999,31.677999999999994) ">
    <svg id="svg_33" viewBox="1.8809361674064435,24.189,16.386512940721065,16.381" height="16.381" width="16.387" y="11.754114" x="8.988815">
     <path id="svg_34" stroke="null" fill="none" d="m10.065,29.189c-0.541,0 -1.079,0.144 -1.554,0.409c-0.743,0.414 -1.279,1.096 -1.509,1.918c-0.232,0.824 -0.128,1.684 0.29,2.428c0.562,1.005 1.633,1.626 2.792,1.626c0.541,0 1.079,-0.138 1.555,-0.405c1.534,-0.861 2.081,-2.809 1.222,-4.345c-0.569,-1.004 -1.638,-1.631 -2.796,-1.631z"/>
    </svg>
   </g>
   <g id="svg_9" transform="matrix(0.55281,0.29369,-0.29391,0.5524,68.399,42.75) ">
    <svg id="svg_35" viewBox="-0.9109068233559796,-4.09,51.81995029640821,56.191" height="56.191" width="51.82" y="-2.513075" x="-44.277748">
     <path id="svg_36" stroke="null" fill="#cf1717" d="m4.858,12.695c1.562,-2.771 5.361,-3.852 8.144,-2.287c2.875,1.617 3.899,5.27 2.286,8.145c-1.057,1.884 -3.059,3.054 -5.217,3.054c-1.019,0 -2.031,-0.264 -2.924,-0.764c-2.878,-1.621 -3.905,-5.277 -2.289,-8.148zm8.146,24.907c-0.895,0.497 -1.903,0.76 -2.921,0.76c-2.164,0 -4.165,-1.17 -5.226,-3.053c-0.782,-1.395 -0.975,-3.008 -0.541,-4.547c0.431,-1.538 1.436,-2.815 2.828,-3.598c2.791,-1.562 6.591,-0.48 8.145,2.291c1.615,2.874 0.588,6.53 -2.285,8.147zm11.991,9.499c-3.297,0 -5.981,-2.682 -5.981,-5.98s2.685,-5.982 5.981,-5.982c3.3,0 5.983,2.685 5.983,5.982c0.001,3.298 -2.683,5.98 -5.983,5.98zm0,-34.229c-3.297,0 -5.981,-2.683 -5.981,-5.981c0,-3.3 2.685,-5.981 5.981,-5.981c3.3,0 5.983,2.681 5.983,5.981c0.001,3.298 -2.683,5.981 -5.983,5.981zm20.139,22.439c-1.058,1.885 -3.058,3.054 -5.221,3.054c-1.023,0 -2.032,-0.266 -2.928,-0.767c-1.392,-0.782 -2.396,-2.062 -2.826,-3.6c-0.434,-1.539 -0.235,-3.152 0.544,-4.544c1.556,-2.771 5.354,-3.856 8.144,-2.29c2.882,1.621 3.905,5.274 2.287,8.147zm0.552,-18.06c-0.433,1.537 -1.441,2.812 -2.834,3.594c-0.89,0.502 -1.904,0.767 -2.923,0.767c-2.159,0 -4.162,-1.17 -5.223,-3.056c-0.779,-1.392 -0.975,-3.007 -0.541,-4.543c0.433,-1.537 1.441,-2.816 2.833,-3.598c2.793,-1.559 6.591,-0.48 8.146,2.289c0.78,1.394 0.969,3.01 0.542,4.547z"/>
    </svg>
   </g>
   <g id="svg_10" transform="matrix(1.8156999999999999,-0.03168399999999999,0.03170799999999999,1.8142999999999998,13.887,-19.497799999999998) ">
    <svg id="svg_37" viewBox="14.014000000000003,-4.091,21.964000279342976,21.961999999999996" height="21.962" width="21.964" y="11.754114" x="8.988815">
     <path id="svg_38" stroke="null" fill="#b1b1b1" d="m24.995,0.909c-3.297,0 -5.981,2.681 -5.981,5.981c0,3.299 2.685,5.981 5.981,5.981c3.3,0 5.983,-2.683 5.983,-5.981c0.001,-3.3 -2.683,-5.981 -5.983,-5.981zm0,9.172c-1.757,0 -3.19,-1.43 -3.19,-3.19c0,-1.758 1.434,-3.191 3.19,-3.191c1.759,0 3.191,1.433 3.191,3.191c0.001,1.76 -1.431,3.19 -3.191,3.19z"/>
    </svg>
   </g>
   <g id="svg_11" transform="matrix(1.8156999999999999,-0.03168399999999999,0.03170799999999999,1.8142999999999998,14.972000000000001,42.605000000000004) ">
    <svg id="svg_39" viewBox="14.014000000000003,30.137999999999998,21.964000279342976,21.961999999999996" height="21.962" width="21.964" y="11.754114" x="8.988815">
     <path id="svg_40" stroke="null" fill="#b1b1b1" d="m24.995,35.138c-3.297,0 -5.981,2.685 -5.981,5.982c0,3.299 2.685,5.98 5.981,5.98c3.3,0 5.983,-2.682 5.983,-5.98c0.001,-3.298 -2.683,-5.982 -5.983,-5.982zm0,9.17c-1.757,0 -3.19,-1.43 -3.19,-3.188c0,-1.76 1.434,-3.192 3.19,-3.192c1.759,0 3.191,1.433 3.191,3.192c0.001,1.758 -1.431,3.188 -3.191,3.188z"/>
    </svg>
   </g>
   <g id="svg_12" transform="matrix(1.8156999999999999,-0.03168399999999999,0.03170799999999999,1.8142999999999998,-12.9308,-3.1430000000000007) ">
    <svg id="svg_41" viewBox="-0.9074255641533826,4.6842704258765675,21.960571578243655,21.918729574123432" height="21.919" width="21.961" y="11.754114" x="8.988815">
     <path id="svg_42" stroke="null" fill="#b1b1b1" d="m7.146,20.84c0.894,0.503 1.905,0.763 2.924,0.763c2.159,0 4.16,-1.167 5.217,-3.051c1.617,-2.877 0.59,-6.53 -2.286,-8.145c-2.782,-1.567 -6.584,-0.487 -8.143,2.285c-1.616,2.874 -0.589,6.53 2.288,8.148zm0.146,-6.779c0.567,-1.004 1.633,-1.629 2.789,-1.629c0.541,0 1.079,0.141 1.555,0.41c1.534,0.863 2.081,2.81 1.221,4.344c-0.564,1.005 -1.63,1.628 -2.785,1.628c-0.541,0 -1.08,-0.141 -1.554,-0.406c-1.539,-0.866 -2.086,-2.816 -1.226,-4.347z"/>
    </svg>
   </g>
   <g id="svg_13" transform="matrix(1.8156999999999999,-0.03168399999999999,0.03170799999999999,1.8142999999999998,41.79299999999999,26.324999999999996) ">
    <svg id="svg_43" viewBox="28.936646826552376,21.445095229510123,21.966623704264364,21.92290477048988" height="21.923" width="21.967" y="11.754114" x="8.988815">
     <path id="svg_44" stroke="null" fill="#b1b1b1" d="m42.85,27.167c-2.793,-1.569 -6.591,-0.479 -8.144,2.288c-0.779,1.396 -0.978,3.004 -0.544,4.544c0.431,1.542 1.438,2.819 2.827,3.603c0.895,0.502 1.903,0.766 2.927,0.766c2.162,0 4.162,-1.17 5.223,-3.053c1.613,-2.877 0.59,-6.53 -2.289,-8.148zm-0.149,6.779c-0.829,1.48 -2.855,2.061 -4.344,1.221c-0.742,-0.418 -1.277,-1.102 -1.509,-1.921c-0.232,-0.82 -0.129,-1.684 0.29,-2.426c0.563,-1.004 1.629,-1.631 2.788,-1.631c0.539,0 1.08,0.144 1.557,0.409c1.534,0.863 2.081,2.812 1.218,4.348z"/>
    </svg>
   </g>
   <g id="svg_14" transform="matrix(1.8156999999999999,-0.03168399999999999,0.03170799999999999,1.8142999999999998,41.271,-4.074999999999999) ">
    <svg id="svg_45" viewBox="28.938807987908895,4.693178812792581,21.972052872128153,21.91582118720742" height="21.916" width="21.972" y="11.754114" x="8.988815">
     <path id="svg_46" stroke="null" fill="#b1b1b1" d="m36.998,10.413c-1.392,0.781 -2.397,2.06 -2.833,3.596c-0.434,1.539 -0.238,3.15 0.541,4.544c1.058,1.887 3.061,3.056 5.223,3.056c1.019,0 2.033,-0.264 2.923,-0.766c1.393,-0.78 2.396,-2.058 2.834,-3.596c0.431,-1.539 0.238,-3.154 -0.541,-4.545c-1.556,-2.771 -5.357,-3.852 -8.147,-2.289zm5.998,6.08c-0.23,0.817 -0.764,1.5 -1.51,1.917c-0.477,0.269 -1.018,0.41 -1.558,0.41c-1.155,0 -2.222,-0.624 -2.787,-1.629c-0.416,-0.743 -0.52,-1.606 -0.29,-2.428c0.23,-0.817 0.767,-1.499 1.509,-1.916c0.474,-0.267 1.014,-0.409 1.559,-0.409c1.155,0 2.224,0.628 2.787,1.627c0.419,0.746 0.523,1.606 0.29,2.428z"/>
    </svg>
   </g>
   <g id="svg_15" transform="matrix(1.8156999999999999,-0.03168399999999999,0.03170799999999999,1.8142999999999998,-12.3985,27.264) ">
    <svg id="svg_47" viewBox="-0.9091456343559203,21.445118336238064,21.965305483615047,21.91688166376193" height="21.917" width="21.965" y="11.754114" x="8.988815">
     <path id="svg_48" stroke="null" fill="#b1b1b1" d="m7.146,27.164c-1.392,0.782 -2.397,2.06 -2.828,3.598c-0.434,1.539 -0.242,3.153 0.541,4.547c1.058,1.883 3.058,3.053 5.226,3.053c1.018,0 2.026,-0.263 2.921,-0.76c2.875,-1.616 3.899,-5.272 2.286,-8.146c-1.556,-2.772 -5.355,-3.854 -8.146,-2.292zm4.49,8.001c-0.477,0.268 -1.015,0.405 -1.555,0.405c-1.155,0 -2.226,-0.625 -2.792,-1.626c-0.416,-0.744 -0.52,-1.605 -0.291,-2.428c0.229,-0.82 0.764,-1.504 1.511,-1.918c0.474,-0.267 1.011,-0.409 1.552,-0.409c1.158,0 2.226,0.627 2.793,1.631c0.863,1.536 0.315,3.484 -1.218,4.345z"/>
    </svg>
   </g>
  </g>
 </g>
 <g>
  <title>background</title>
  <rect fill="none" id="canvas_background" height="105" width="252" y="-1" x="-1"/>
 </g>
</svg>