<?xml version="1.0" encoding="UTF-8"?>
<svg viewBox="0 0 150 150" xmlns="http://www.w3.org/2000/svg">
<g>
<title>background</title>
<rect x="-1" y="-1" width="152" height="152" fill="#fff"/>
<g x="0" y="0" display="none" overflow="visible">
<rect width="100%" height="100%" fill="url(#gridpattern)" stroke-width="0"/>
</g>
</g>
<g>
<title>Layer 1</title>
<g transform="matrix(1.564 0 0 1.5888 2.7794 1.9047)" stroke="null">
<title transform="translate(84.992 42.358)">background</title>
<rect x="84.992" y="42.358" width="0" height="203" fill="none"/>
</g>
<g transform="matrix(1.8585 0 0 1.6119 -19.903 -8.9042)" stroke="null">
<g transform="matrix(.93547 0 0 .93513 141.71 22.128)">
<svg x="13.621" y="25.233" width="0" height="203" stroke="null"></svg>
</g>
<g transform="matrix(1.8157 -.031684 .031708 1.8143 18.504 -15.041)">
<svg x="8.9888" y="11.754" width="16.392" height="16.382" stroke="null" viewBox="16.799239339794724,-1.3010000000000002,16.391521320410554,16.381999999999998">
<circle cx="24.995" cy="6.89" r="3.191" fill="none" stroke="null"/>
</svg>
</g>
<g transform="matrix(1.8157 -.031684 .031708 1.8143 46.408 30.724)">
<svg x="8.9888" y="11.754" width="16.384" height="16.365" stroke="null" viewBox="31.726697807032664,24.192,16.383500077982838,16.36548071116829">
<path d="m41.483 29.601c-0.474-0.265-1.015-0.409-1.557-0.409-1.156 0-2.222 0.628-2.788 1.633-0.419 0.741-0.522 1.602-0.29 2.424 0.231 0.82 0.764 1.501 1.509 1.922 1.488 0.839 3.515 0.258 4.344-1.221 0.863-1.54 0.316-3.489-1.218-4.349z" fill="none" stroke="null"/>
</svg>
</g>
<g transform="matrix(1.8157 -.031684 .031708 1.8143 45.892 .34)">
<svg x="8.9888" y="11.754" width="16.388" height="16.382" stroke="null" viewBox="31.73269780703267,7.436999999999999,16.387733030101266,16.381999999999998">
<path d="m39.921 12.437c-0.541 0-1.08 0.14-1.557 0.409-0.744 0.414-1.279 1.097-1.51 1.915-0.232 0.82-0.129 1.685 0.29 2.426 0.565 1.005 1.632 1.632 2.787 1.632 0.541 0 1.081-0.144 1.559-0.411 0.745-0.416 1.277-1.097 1.509-1.919 0.232-0.821 0.129-1.681-0.287-2.425-0.569-1.001-1.635-1.627-2.791-1.627z" fill="none" stroke="null"/>
</svg>
</g>
<g transform="matrix(1.8157 -.031684 .031708 1.8143 19.589 47.06)">
<svg x="8.9888" y="11.754" width="16.39" height="16.38" stroke="null" viewBox="16.80024086355298,32.928000000000004,16.389518272894044,16.380000000000003">
<circle cx="24.995" cy="41.118" r="3.19" fill="none" stroke="null"/>
</svg>
</g>
<g transform="matrix(1.8157 -.031684 .031708 1.8143 -8.312 1.276)">
<svg x="8.9888" y="11.754" width="16.379" height="16.382" stroke="null" viewBox="1.8839566756362434,7.431999999999999,16.37924407510215,16.382">
<path d="m8.514 18.408c0.474 0.266 1.013 0.406 1.556 0.406 1.153 0 2.22-0.624 2.785-1.628 0.862-1.534 0.314-3.485-1.222-4.344-0.477-0.269-1.015-0.41-1.556-0.41-1.152 0-2.223 0.625-2.788 1.629-0.857 1.531-0.31 3.481 1.225 4.347z" fill="none" stroke="null"/>
</svg>
</g>
<g transform="matrix(1.8157 -.031684 .031708 1.8143 -7.78 31.678)">
<svg x="8.9888" y="11.754" width="16.387" height="16.381" stroke="null" viewBox="1.8809361674064435,24.189,16.386512940721065,16.381">
<path d="m10.065 29.189c-0.541 0-1.079 0.144-1.554 0.409-0.743 0.414-1.279 1.096-1.509 1.918-0.232 0.824-0.128 1.684 0.29 2.428 0.562 1.005 1.633 1.626 2.792 1.626 0.541 0 1.079-0.138 1.555-0.405 1.534-0.861 2.081-2.809 1.222-4.345-0.569-1.004-1.638-1.631-2.796-1.631z" fill="none" stroke="null"/>
</svg>
</g>
<g transform="matrix(.55281 .29369 -.29391 .5524 68.399 42.75)">
<svg x="-44.278" y="-2.5131" width="51.82" height="56.191" stroke="null" viewBox="-0.9109068233559796,-4.09,51.81995029640821,56.191">
<path d="m4.858 12.695c1.562-2.771 5.361-3.852 8.144-2.287 2.875 1.617 3.899 5.27 2.286 8.145-1.057 1.884-3.059 3.054-5.217 3.054-1.019 0-2.031-0.264-2.924-0.764-2.878-1.621-3.905-5.277-2.289-8.148zm8.146 24.907c-0.895 0.497-1.903 0.76-2.921 0.76-2.164 0-4.165-1.17-5.226-3.053-0.782-1.395-0.975-3.008-0.541-4.547 0.431-1.538 1.436-2.815 2.828-3.598 2.791-1.562 6.591-0.48 8.145 2.291 1.615 2.874 0.588 6.53-2.285 8.147zm11.991 9.499c-3.297 0-5.981-2.682-5.981-5.98s2.685-5.982 5.981-5.982c3.3 0 5.983 2.685 5.983 5.982 1e-3 3.298-2.683 5.98-5.983 5.98zm0-34.229c-3.297 0-5.981-2.683-5.981-5.981 0-3.3 2.685-5.981 5.981-5.981 3.3 0 5.983 2.681 5.983 5.981 1e-3 3.298-2.683 5.981-5.983 5.981zm20.139 22.439c-1.058 1.885-3.058 3.054-5.221 3.054-1.023 0-2.032-0.266-2.928-0.767-1.392-0.782-2.396-2.062-2.826-3.6-0.434-1.539-0.235-3.152 0.544-4.544 1.556-2.771 5.354-3.856 8.144-2.29 2.882 1.621 3.905 5.274 2.287 8.147zm0.552-18.06c-0.433 1.537-1.441 2.812-2.834 3.594-0.89 0.502-1.904 0.767-2.923 0.767-2.159 0-4.162-1.17-5.223-3.056-0.779-1.392-0.975-3.007-0.541-4.543 0.433-1.537 1.441-2.816 2.833-3.598 2.793-1.559 6.591-0.48 8.146 2.289 0.78 1.394 0.969 3.01 0.542 4.547z" fill="#cf1717" stroke="null"/>
</svg>
</g>
<g transform="matrix(1.8157 -.031684 .031708 1.8143 13.887 -19.498)">
<svg x="8.9888" y="11.754" width="21.964" height="21.962" stroke="null" viewBox="14.014000000000003,-4.091,21.964000279342976,21.961999999999996">
<path d="m24.995 0.909c-3.297 0-5.981 2.681-5.981 5.981 0 3.299 2.685 5.981 5.981 5.981 3.3 0 5.983-2.683 5.983-5.981 1e-3 -3.3-2.683-5.981-5.983-5.981zm0 9.172c-1.757 0-3.19-1.43-3.19-3.19 0-1.758 1.434-3.191 3.19-3.191 1.759 0 3.191 1.433 3.191 3.191 1e-3 1.76-1.431 3.19-3.191 3.19z" fill="#b1b1b1" stroke="null"/>
</svg>
</g>
<g transform="matrix(1.8157 -.031684 .031708 1.8143 14.972 42.605)">
<svg x="8.9888" y="11.754" width="21.964" height="21.962" stroke="null" viewBox="14.014000000000003,30.137999999999998,21.964000279342976,21.961999999999996">
<path d="m24.995 35.138c-3.297 0-5.981 2.685-5.981 5.982 0 3.299 2.685 5.98 5.981 5.98 3.3 0 5.983-2.682 5.983-5.98 1e-3 -3.298-2.683-5.982-5.983-5.982zm0 9.17c-1.757 0-3.19-1.43-3.19-3.188 0-1.76 1.434-3.192 3.19-3.192 1.759 0 3.191 1.433 3.191 3.192 1e-3 1.758-1.431 3.188-3.191 3.188z" fill="#b1b1b1" stroke="null"/>
</svg>
</g>
<g transform="matrix(1.8157 -.031684 .031708 1.8143 -12.931 -3.143)">
<svg x="8.9888" y="11.754" width="21.961" height="21.919" stroke="null" viewBox="-0.9074255641533826,4.6842704258765675,21.960571578243655,21.918729574123432">
<path d="m7.146 20.84c0.894 0.503 1.905 0.763 2.924 0.763 2.159 0 4.16-1.167 5.217-3.051 1.617-2.877 0.59-6.53-2.286-8.145-2.782-1.567-6.584-0.487-8.143 2.285-1.616 2.874-0.589 6.53 2.288 8.148zm0.146-6.779c0.567-1.004 1.633-1.629 2.789-1.629 0.541 0 1.079 0.141 1.555 0.41 1.534 0.863 2.081 2.81 1.221 4.344-0.564 1.005-1.63 1.628-2.785 1.628-0.541 0-1.08-0.141-1.554-0.406-1.539-0.866-2.086-2.816-1.226-4.347z" fill="#b1b1b1" stroke="null"/>
</svg>
</g>
<g transform="matrix(1.8157 -.031684 .031708 1.8143 41.793 26.325)">
<svg x="8.9888" y="11.754" width="21.967" height="21.923" stroke="null" viewBox="28.936646826552376,21.445095229510123,21.966623704264364,21.92290477048988">
<path d="m42.85 27.167c-2.793-1.569-6.591-0.479-8.144 2.288-0.779 1.396-0.978 3.004-0.544 4.544 0.431 1.542 1.438 2.819 2.827 3.603 0.895 0.502 1.903 0.766 2.927 0.766 2.162 0 4.162-1.17 5.223-3.053 1.613-2.877 0.59-6.53-2.289-8.148zm-0.149 6.779c-0.829 1.48-2.855 2.061-4.344 1.221-0.742-0.418-1.277-1.102-1.509-1.921-0.232-0.82-0.129-1.684 0.29-2.426 0.563-1.004 1.629-1.631 2.788-1.631 0.539 0 1.08 0.144 1.557 0.409 1.534 0.863 2.081 2.812 1.218 4.348z" fill="#b1b1b1" stroke="null"/>
</svg>
</g>
<g transform="matrix(1.8157 -.031684 .031708 1.8143 41.271 -4.075)">
<svg x="8.9888" y="11.754" width="21.972" height="21.916" stroke="null" viewBox="28.938807987908895,4.693178812792581,21.972052872128153,21.91582118720742">
<path d="m36.998 10.413c-1.392 0.781-2.397 2.06-2.833 3.596-0.434 1.539-0.238 3.15 0.541 4.544 1.058 1.887 3.061 3.056 5.223 3.056 1.019 0 2.033-0.264 2.923-0.766 1.393-0.78 2.396-2.058 2.834-3.596 0.431-1.539 0.238-3.154-0.541-4.545-1.556-2.771-5.357-3.852-8.147-2.289zm5.998 6.08c-0.23 0.817-0.764 1.5-1.51 1.917-0.477 0.269-1.018 0.41-1.558 0.41-1.155 0-2.222-0.624-2.787-1.629-0.416-0.743-0.52-1.606-0.29-2.428 0.23-0.817 0.767-1.499 1.509-1.916 0.474-0.267 1.014-0.409 1.559-0.409 1.155 0 2.224 0.628 2.787 1.627 0.419 0.746 0.523 1.606 0.29 2.428z" fill="#b1b1b1" stroke="null"/>
</svg>
</g>
<g transform="matrix(1.8157 -.031684 .031708 1.8143 -12.398 27.264)">
<svg x="8.9888" y="11.754" width="21.965" height="21.917" stroke="null" viewBox="-0.9091456343559203,21.445118336238064,21.965305483615047,21.91688166376193">
<path d="m7.146 27.164c-1.392 0.782-2.397 2.06-2.828 3.598-0.434 1.539-0.242 3.153 0.541 4.547 1.058 1.883 3.058 3.053 5.226 3.053 1.018 0 2.026-0.263 2.921-0.76 2.875-1.616 3.899-5.272 2.286-8.146-1.556-2.772-5.355-3.854-8.146-2.292zm4.49 8.001c-0.477 0.268-1.015 0.405-1.555 0.405-1.155 0-2.226-0.625-2.792-1.626-0.416-0.744-0.52-1.605-0.291-2.428 0.229-0.82 0.764-1.504 1.511-1.918 0.474-0.267 1.011-0.409 1.552-0.409 1.158 0 2.226 0.627 2.793 1.631 0.863 1.536 0.315 3.484-1.218 4.345z" fill="#b1b1b1" stroke="null"/>
</svg>
</g>
</g>
</g>
</svg>